HIERARCHY
ROOT Hips
{
	OFFSET 0.00000 0.00000 0.00000
	CHANNELS 6 Xposition Yposition Zposition Yrotation Zrotation Xrotation 
	JOINT Lumbar
	{
		OFFSET 0 0 0
		CHANNELS 3 Zrotation Xrotation Yrotation
		JOINT Neck
		{
			OFFSET 0.00 0.2701 0.00
			CHANNELS 3 Zrotation Xrotation Yrotation
			End Site
			{
				OFFSET 0.00 0.1379 0.00
			}
		}
		JOINT RightShoulder
		{
			OFFSET 0.0119 0.2289 0.1181
			CHANNELS 3 Zrotation Xrotation Yrotation
			JOINT RightElbow
			{
				OFFSET 0.00 -0.1475 0.00
				CHANNELS 2 Zrotation Yrotation
				JOINT RightWrist
				{
					OFFSET 0.00 -0.1605 0.00
					CHANNELS 2 Zrotation Xrotation
					End Site
					{
						OFFSET 0.0040 -0.1068 0.0006
					}
				}
			}
		}
		JOINT LeftShoulder
		{
			OFFSET 0.0119 0.2289 -0.1181
			CHANNELS 3 Zrotation Xrotation Yrotation
			JOINT LeftElbow
			{
				OFFSET 0.00 -0.1475 0.00
				CHANNELS 2 Zrotation Yrotation
				JOINT LeftWrist
				{
					OFFSET 0.00 -0.1605 0.00
					CHANNELS 2 Zrotation Xrotation
					End Site
					{
						OFFSET 0.0040 -0.1068 -0.0006
					}
				}
			}
		}
	}
	JOINT RightHip
	{
		OFFSET 0.0316 -0.0424 0.0458
		CHANNELS 3 Zrotation Xrotation Yrotation
		JOINT RightKnee
		{
			OFFSET 0.00 -0.2438 0.00
			CHANNELS 1 Zrotation
			JOINT RightAnkle
			{
				OFFSET 0.00 -0.2449 0.00
				CHANNELS 3 Zrotation Xrotation Yrotation
				End Site
				{
					OFFSET 0.1237 -0.0542 0.0051
				}
			}
		}
	}
	JOINT LeftHip
	{
		OFFSET 0.0316 -0.0424 -0.0458
		CHANNELS 3 Zrotation Xrotation Yrotation
		JOINT LeftKnee
		{
			OFFSET 0.00 -0.2438 0.00
			CHANNELS 1 Zrotation
			JOINT LeftAnkle
			{
				OFFSET 0.00 -0.2449 0.00
				CHANNELS 3 Zrotation Xrotation Yrotation
				End Site
				{
					OFFSET 0.1237 -0.0542 -0.0051
				}
			}
		}
	}
}
MOTION
Frames: 19
Frame Time: 0.02
-0.87075 -0.36117 0.11408 746.04969 23.27252 -6.64644 0.18156 4.71933 -7.1702 -34.09451 4.35655 -2.11994 -16.20857 -2.66875 31.68235 116.04181 89.25837 6.63712 1.07434 -14.57839 6.16512 -17.28074 122.56315 -92.99544 11.3324 -0.10639 51.67488 0.91646 -20.93561 -50.73465 -12.54043 -1.76716 -3.3705 73.82769 -5.77206 31.8453 -75.07276 -19.14379 1.67943 3.65333
-0.87081 -0.36121 0.11409 746.06997 23.33029 -6.65922 0.2225 4.70358 -7.13788 -34.04017 4.41741 -2.11994 -16.11378 -2.77042 31.75127 116.03253 88.44496 6.43454 0.63781 -14.41296 6.46171 -17.4375 122.58575 -91.92563 10.93644 0.14673 51.62394 0.93539 -20.87987 -50.71825 -12.5484 -1.76782 -3.372 73.76404 -5.75609 31.84185 -75.05866 -19.13794 1.68278 3.65492
-0.87089 -0.36126 0.11411 746.08898 23.37249 -6.66969 0.26729 4.68285 -7.10024 -33.98504 4.48831 -2.11994 -16.0046 -2.91076 31.83672 116.03338 87.38105 6.18832 0.01358 -14.21279 6.83002 -17.636 122.6064 -90.54126 10.42945 0.4614 51.60635 0.98587 -20.74774 -50.70605 -12.55875 -1.77213 -3.37587 73.72635 -5.75203 31.81846 -75.02836 -19.12918 1.68735 3.65697
-0.87095 -0.36131 0.11412 746.10871 23.41987 -6.68128 0.3123 4.66439 -7.06548 -33.93032 4.55213 -2.11994 -15.90354 -3.02866 31.91741 116.02671 86.45301 5.94946 -0.50634 -14.03706 7.14313 -17.80848 122.62839 -89.34661 9.9982 0.71973 51.57569 1.02168 -20.65073 -50.69284 -12.5679 -1.77486 -3.37866 73.67814 -5.74297 31.80565 -75.00416 -19.122 1.69128 3.65877
-0.87102 -0.36136 0.11414 746.12639 23.46883 -6.69162 0.35638 4.64496 -7.0289 -33.87131 4.62737 -2.11994 -15.79539 -3.16573 31.98868 116.03215 85.42273 5.75799 -1.10549 -13.82716 7.54811 -18.00856 122.65109 -87.95533 9.46555 1.09177 51.54487 1.05851 -20.55201 -50.67923 -12.57691 -1.77684 -3.3812 73.63293 -5.73128 31.78696 -74.98719 -19.11354 1.69588 3.6609
-0.87109 -0.3614 0.11416 746.14846 23.51289 -6.70432 0.40068 4.62669 -6.99475 -33.82209 4.68112 -2.11994 -15.69885 -3.27249 32.08217 116.015 84.54952 5.46013 -1.58415 -13.6782 7.78312 -18.16323 122.67043 -86.89542 9.11189 1.24892 51.51946 1.10078 -20.43889 -50.66632 -12.58698 -1.78137 -3.38489 73.58498 -5.72819 31.77558 -74.95086 -19.10711 1.69927 3.66241
-0.87113 -0.36142 0.11417 746.18457 23.55202 -6.72486 0.44226 4.61327 -6.9692 -33.80673 4.6705 -2.11994 -15.63662 -3.28757 32.23912 115.93141 84.17075 4.87193 -1.69006 -13.71971 7.49356 -18.16526 122.68628 -86.86763 9.32792 0.73439 51.49514 1.15116 -20.3025 -50.65213 -12.59993 -1.79252 -3.39142 73.51626 -5.74638 31.78928 -74.86184 -19.10712 1.69884 3.66202
-0.87118 -0.36143 0.11417 746.22503 23.58679 -6.74787 0.48333 4.60125 -6.94619 -33.80065 4.63826 -2.11994 -15.58673 -3.27098 32.41657 115.82511 83.96011 4.18081 -1.66784 -13.82124 7.03697 -18.12293 122.69763 -87.17774 9.71971 0.01237 51.47495 1.20578 -20.15476 -50.63841 -12.61385 -1.8061 -3.39901 73.44398 -5.77284 31.81091 -74.75425 -19.10928 1.69714 3.66099
-0.87122 -0.36144 0.11418 746.26272 23.62151 -6.76943 0.52509 4.58846 -6.92153 -33.7867 4.61744 -2.11994 -15.5322 -3.26787 32.5803 115.73015 83.67418 3.54136 -1.69998 -13.88588 6.68225 -18.11279 122.70712 -87.30636 9.99805 -0.57193 51.45522 1.25803 -20.01348 -50.62538 -12.62709 -1.81835 -3.40599 73.37643 -5.79538 31.82886 -74.65685 -19.1104 1.69609 3.66029
-0.87127 -0.36145 0.11418 746.30383 23.66439 -6.7923 0.56509 4.57607 -6.89859 -33.78822 4.5902 -2.11994 -15.47355 -3.26904 32.76293 115.63094 83.37465 2.87697 -1.75291 -13.98908 6.22263 -18.05532 122.73265 -87.53914 10.41042 -1.33349 51.42666 1.31342 -19.86354 -50.6087 -12.64146 -1.8317 -3.41362 73.29645 -5.81909 31.84658 -74.55125 -19.11169 1.69479 3.65943
-0.87131 -0.36146 0.11419 746.33871 23.68914 -6.81301 0.60868 4.56322 -6.87296 -33.75956 4.57114 -2.11994 -15.42603 -3.25438 32.91121 115.53547 83.14663 2.24402 -1.73225 -14.02774 5.93812 -18.08283 122.72427 -87.64276 10.59164 -1.78086 51.41735 1.36267 -19.73053 -50.59976 -12.65363 -1.84325 -3.42009 73.24159 -5.84203 31.86678 -74.45888 -19.11316 1.6937 3.65876
-0.87131 -0.36148 0.11418 746.35678 23.6681 -6.82764 0.6608 4.54916 -6.83732 -33.64702 4.57937 -2.11994 -15.41146 -3.19396 32.95615 115.45217 83.07702 1.69457 -1.5162 -13.86462 6.20139 -18.37719 122.61846 -87.28115 10.05091 -1.26801 51.45687 1.3955 -19.64223 -50.61117 -12.65982 -1.84955 -3.42325 73.25278 -5.86206 31.89293 -74.40468 -19.11481 1.69334 3.65869
-0.8713 -0.36151 0.11418 746.36815 23.62845 -6.83993 0.71674 4.53456 -6.79927 -33.50348 4.59673 -2.11994 -15.40687 -3.12017 32.96623 115.37398 83.07456 1.18578 -1.23358 -13.63648 6.64171 -18.75433 122.47956 -86.78571 9.2799 -0.44012 51.51605 1.42159 -19.57257 -50.63049 -12.6637 -1.85389 -3.42517 73.29003 -5.88076 31.92112 -74.36509 -19.11656 1.69327 3.65884
-0.8713 -0.36153 0.11417 746.38166 23.59532 -6.85295 0.77195 4.51997 -6.7636 -33.37304 4.61018 -2.11994 -15.39425 -3.05894 32.99465 115.29597 83.04115 0.67738 -0.99643 -13.44392 6.98556 -19.07944 122.35902 -86.3683 8.6412 0.21598 51.56819 1.44949 -19.49796 -50.64678 -12.6684 -1.85894 -3.42754 73.31791 -5.89913 31.9479 -74.32076 -19.11815 1.6932 3.65895
-0.8713 -0.36155 0.11417 746.39918 23.57021 -6.86742 0.8231 4.50641 -6.72253 -33.24711 4.62156 -2.11994 -15.39642 -2.96994 33.01384 115.20697 83.01488 0.08599 -0.69229 -13.22733 7.39212 -19.46415 122.22437 -85.88403 7.89071 0.98643 51.61248 1.48264 -19.40826 -50.66077 -12.67409 -1.86484 -3.43044 73.33511 -5.92158 31.97729 -74.26765 -19.1203 1.69255 3.65881
-0.87129 -0.36157 0.11416 746.40666 23.52401 -6.87834 0.88333 4.49057 -6.69217 -33.10427 4.64007 -2.11994 -15.37048 -2.93517 33.04295 115.14194 82.98803 -0.32188 -0.51149 -13.04539 7.71116 -19.74458 122.11123 -85.51013 7.31745 1.59531 51.67777 1.50345 -19.35428 -50.68133 -12.67717 -1.86846 -3.43191 73.38096 -5.9353 32.00123 -74.23667 -19.12131 1.69316 3.65925
-0.87127 -0.36158 0.11414 746.38852 23.42431 -6.8794 0.97029 4.46834 -6.69134 -32.92279 4.67303 -2.11994 -15.26028 -3.06066 33.11431 115.14564 82.93886 -0.22901 -0.70528 -12.96736 7.75638 -19.72061 122.06609 -85.40611 7.2763 1.69065 51.79603 1.48968 -19.39726 -50.71904 -12.6734 -1.86634 -3.42979 73.49816 -5.92361 32.01327 -74.2623 -19.11889 1.69735 3.66135
-0.87124 -0.36159 0.11411 746.36041 23.30397 -6.87707 1.06579 4.44388 -6.70146 -32.72524 4.71355 -2.11994 -15.12213 -3.23998 33.19551 115.17269 82.88705 0.04707 -1.02285 -12.92729 7.70687 -19.5887 122.04362 -85.4256 7.42211 1.61253 51.93482 1.46411 -19.47508 -50.76293 -12.66713 -1.86196 -3.42627 73.6436 -5.9034 32.01914 -74.30997 -19.11537 1.70277 3.66403
-0.87122 -0.36159 0.11409 746.33654 23.19298 -6.87666 1.15564 4.42057 -6.70694 -32.5347 4.75259 -2.11994 -14.99956 -3.39002 33.26803 115.18669 82.83808 0.23709 -1.27268 -12.87498 7.69334 -19.50348 122.01046 -85.43525 7.49164 1.60751 52.0643 1.44536 -19.5351 -50.80334 -12.66213 -1.85854 -3.42336 73.77704 -5.88823 32.02524 -74.34824 -19.11253 1.70751 3.6664
